<?xml version="1.0" encoding="UTF-8" standalone="no"?>
<svg width="222px" height="222px" viewBox="0 0 222 222" version="1.1" xmlns="http://www.w3.org/2000/svg" xmlns:xlink="http://www.w3.org/1999/xlink" xmlns:sketch="http://www.bohemiancoding.com/sketch/ns">
    <!-- Generator: Sketch 3.1.1 (8761) - http://www.bohemiancoding.com/sketch -->
    <title>clear</title>
    <desc>Created with Sketch.</desc>
    <defs></defs>
    <g id="Page-1" stroke="none" stroke-width="1" fill="none" fill-rule="evenodd" sketch:type="MSPage">
        <g id="Portrait---6" sketch:type="MSArtboardGroup" transform="translate(-489.000000, -683.000000)" fill="#FFFFFF">
            <path d="M489.306641,794.207031 C489.306641,791.667956 490.185538,789.51954 491.943359,787.761719 C493.766285,786.069002 495.849598,785.222656 498.193359,785.222656 L519.482422,785.222656 C521.891288,785.222656 523.893221,786.101554 525.488281,787.859375 C527.083341,789.617196 527.880859,791.733061 527.880859,794.207031 C527.880859,796.681002 527.083341,798.78059 525.488281,800.505859 C523.893221,802.231128 521.891288,803.09375 519.482422,803.09375 L498.193359,803.09375 C495.784493,803.09375 493.701181,802.214853 491.943359,800.457031 C490.185538,798.69921 489.306641,796.615897 489.306641,794.207031 L489.306641,794.207031 Z M519.091797,866.375 C519.091797,863.966134 519.905591,861.85027 521.533203,860.027344 L536.865234,845.183594 C538.427742,843.555981 540.478503,842.742188 543.017578,842.742188 C545.491549,842.742188 547.558585,843.52343 549.21875,845.085938 C550.878915,846.648445 551.708984,848.634103 551.708984,851.042969 C551.708984,853.582044 550.862639,855.795563 549.169922,857.683594 L534.326172,872.527344 C530.09438,875.847673 525.8301,875.847673 521.533203,872.527344 C519.905591,870.769522 519.091797,868.718762 519.091797,866.375 L519.091797,866.375 Z M519.091797,722.136719 C519.091797,719.727853 519.905591,717.611988 521.533203,715.789062 C523.551442,714.096346 525.764962,713.25 528.173828,713.25 C530.452485,713.25 532.503246,714.096346 534.326172,715.789062 L549.169922,731.121094 C550.862639,732.683602 551.708984,734.734362 551.708984,737.273438 C551.708984,739.747408 550.878915,741.814445 549.21875,743.474609 C547.558585,745.134774 545.491549,745.964844 543.017578,745.964844 C540.478503,745.964844 538.427742,745.118498 536.865234,743.425781 L521.533203,728.582031 C519.905591,726.82421 519.091797,724.675794 519.091797,722.136719 L519.091797,722.136719 Z M545.654297,794.207031 C545.654297,784.506462 548.095679,775.473349 552.978516,767.107422 C557.861353,758.741495 564.485635,752.117212 572.851562,747.234375 C581.21749,742.351538 590.250603,739.910156 599.951172,739.910156 C607.242875,739.910156 614.241503,741.358709 620.947266,744.255859 C627.653028,747.153009 633.430965,751.026668 638.28125,755.876953 C643.131535,760.727238 646.988918,766.505175 649.853516,773.210938 C652.718113,779.9167 654.150391,786.915328 654.150391,794.207031 C654.150391,803.972705 651.725285,813.022094 646.875,821.355469 C642.024715,829.688844 635.432984,836.280575 627.099609,841.130859 C618.766234,845.981144 609.716846,848.40625 599.951172,848.40625 C590.185498,848.40625 581.136109,845.981144 572.802734,841.130859 C564.469359,836.280575 557.861353,829.688844 552.978516,821.355469 C548.095679,813.022094 545.654297,803.972705 545.654297,794.207031 L545.654297,794.207031 Z M563.330078,794.207031 C563.330078,804.363332 566.894496,813.038375 574.023438,820.232422 C581.152379,827.426468 589.794871,831.023438 599.951172,831.023438 C610.107473,831.023438 618.782516,827.426468 625.976562,820.232422 C633.170609,813.038375 636.767578,804.363332 636.767578,794.207031 C636.767578,784.180939 633.170609,775.619827 625.976562,768.523438 C618.782516,761.427048 610.107473,757.878906 599.951172,757.878906 C589.859976,757.878906 581.23376,761.427048 574.072266,768.523438 C566.910771,775.619827 563.330078,784.180939 563.330078,794.207031 L563.330078,794.207031 Z M591.064453,875.164062 C591.064453,872.690092 591.927075,870.606779 593.652344,868.914062 C595.377613,867.221346 597.477201,866.375 599.951172,866.375 C602.490247,866.375 604.606111,867.221346 606.298828,868.914062 C607.991545,870.606779 608.837891,872.690092 608.837891,875.164062 L608.837891,895.867188 C608.837891,898.406263 607.975269,900.554679 606.25,902.3125 C604.524731,904.070321 602.425143,904.949219 599.951172,904.949219 C597.477201,904.949219 595.377613,904.070321 593.652344,902.3125 C591.927075,900.554679 591.064453,898.406263 591.064453,895.867188 L591.064453,875.164062 Z M591.064453,713.738281 L591.064453,692.449219 C591.064453,690.040353 591.943351,687.95704 593.701172,686.199219 C595.458993,684.441397 597.542306,683.5625 599.951172,683.5625 C602.360038,683.5625 604.443351,684.441397 606.201172,686.199219 C607.958993,687.95704 608.837891,690.040353 608.837891,692.449219 L608.837891,713.738281 C608.837891,716.147147 607.975269,718.149081 606.25,719.744141 C604.524731,721.339201 602.425143,722.136719 599.951172,722.136719 C597.477201,722.136719 595.377613,721.339201 593.652344,719.744141 C591.927075,718.149081 591.064453,716.147147 591.064453,713.738281 L591.064453,713.738281 Z M648.583984,851.042969 C648.583984,848.634103 649.365227,846.680997 650.927734,845.183594 C652.490242,843.555981 654.443348,842.742188 656.787109,842.742188 C659.326185,842.742188 661.409497,843.555981 663.037109,845.183594 L678.271484,860.027344 C679.964201,861.85027 680.810547,863.966134 680.810547,866.375 C680.810547,868.783866 679.964201,870.834627 678.271484,872.527344 C674.104797,875.782568 669.938172,875.782568 665.771484,872.527344 L650.927734,857.683594 C649.365227,855.925772 648.583984,853.712253 648.583984,851.042969 L648.583984,851.042969 Z M648.583984,737.273438 C648.583984,734.669258 649.365227,732.618497 650.927734,731.121094 L665.771484,715.789062 C667.59441,714.096346 669.645171,713.25 671.923828,713.25 C674.397799,713.25 676.497387,714.128897 678.222656,715.886719 C679.947925,717.64454 680.810547,719.727853 680.810547,722.136719 C680.810547,724.740898 679.964201,726.889314 678.271484,728.582031 L663.037109,743.425781 C661.149079,745.118498 659.065767,745.964844 656.787109,745.964844 C654.443348,745.964844 652.490242,745.134774 650.927734,743.474609 C649.365227,741.814445 648.583984,739.747408 648.583984,737.273438 L648.583984,737.273438 Z M672.119141,794.207031 C672.119141,791.733061 672.965486,789.584645 674.658203,787.761719 C676.35092,786.069002 678.336577,785.222656 680.615234,785.222656 L701.708984,785.222656 C704.117851,785.222656 706.217439,786.11783 708.007812,787.908203 C709.798186,789.698577 710.693359,791.798165 710.693359,794.207031 C710.693359,796.615897 709.798186,798.69921 708.007812,800.457031 C706.217439,802.214853 704.117851,803.09375 701.708984,803.09375 L680.615234,803.09375 C678.206368,803.09375 676.188159,802.231128 674.560547,800.505859 C672.932935,798.78059 672.119141,796.681002 672.119141,794.207031 L672.119141,794.207031 Z" id="clear" sketch:type="MSShapeGroup"></path>
        </g>
    </g>
</svg>