<?xml version="1.0" encoding="UTF-8" standalone="no"?>
<svg width="232px" height="153px" viewBox="0 0 232 153" version="1.1" xmlns="http://www.w3.org/2000/svg" xmlns:xlink="http://www.w3.org/1999/xlink" xmlns:sketch="http://www.bohemiancoding.com/sketch/ns">
    <!-- Generator: Sketch 3.1.1 (8761) - http://www.bohemiancoding.com/sketch -->
    <title>clouds</title>
    <desc>Created with Sketch.</desc>
    <defs></defs>
    <g id="Page-1" stroke="none" stroke-width="1" fill="none" fill-rule="evenodd" sketch:type="MSPage">
        <g id="Portrait---6" sketch:type="MSArtboardGroup" transform="translate(-484.000000, -36.000000)" fill="#FFFFFF">
            <path d="M484.277344,144.164062 C484.277344,133.812448 487.499968,124.616577 493.945312,116.576172 C500.390657,108.535767 508.658804,103.376313 518.75,101.097656 C521.419284,88.8580117 527.604118,78.8483462 537.304688,71.0683594 C547.005257,63.2883726 558.17051,59.3984375 570.800781,59.3984375 C583.10553,59.3984375 594.091749,63.1907173 603.759766,70.7753906 C613.427783,78.360064 619.693996,88.0767637 622.558594,99.9257812 L625.390625,99.9257812 C637.63027,99.9257812 648.079384,104.238889 656.738281,112.865234 C665.397179,121.49158 669.726562,131.924418 669.726562,144.164062 C669.726562,156.403707 665.397179,166.869097 656.738281,175.560547 C648.079384,184.251997 637.63027,188.597656 625.390625,188.597656 L528.710938,188.597656 C522.721324,188.597656 516.975939,187.425793 511.474609,185.082031 C505.97328,182.73827 501.236999,179.580749 497.265625,175.609375 C493.294251,171.638001 490.13673,166.90172 487.792969,161.400391 C485.449207,155.899061 484.277344,150.153676 484.277344,144.164062 L484.277344,144.164062 Z M499.414062,144.164062 C499.414062,152.106811 502.278617,158.926404 508.007812,164.623047 C513.737008,170.31969 520.63798,173.167969 528.710938,173.167969 L625.390625,173.167969 C633.463582,173.167969 640.364555,170.31969 646.09375,164.623047 C651.822945,158.926404 654.6875,152.106811 654.6875,144.164062 C654.6875,136.221314 651.822945,129.417997 646.09375,123.753906 C640.364555,118.089815 633.463582,115.257812 625.390625,115.257812 L610.9375,115.257812 C609.895828,115.257812 609.375,114.736984 609.375,113.695312 L608.691406,108.617188 C607.649734,98.7864092 603.531937,90.6321938 596.337891,84.1542969 C589.143844,77.6763999 580.63156,74.4375 570.800781,74.4375 C560.970003,74.4375 552.425167,77.6926758 545.166016,84.203125 C537.906865,90.7135742 533.821619,98.8515137 532.910156,108.617188 L532.226562,113.011719 C532.226562,114.053391 531.673183,114.574219 530.566406,114.574219 L525.878906,115.257812 C518.39189,115.908857 512.1094,119.001274 507.03125,124.535156 C501.9531,130.069038 499.414062,136.611941 499.414062,144.164062 L499.414062,144.164062 Z M591.601562,53.34375 C601.171923,42.3410908 613.313729,36.8398438 628.027344,36.8398438 C638.769585,36.8398438 648.486285,40.2089507 657.177734,46.9472656 C665.869184,53.6855806 671.582018,62.2629687 674.316406,72.6796875 L675.878906,72.6796875 C686.881565,72.6796875 696.272748,76.5696226 704.052734,84.3496094 C711.832721,92.1295962 715.722656,101.520778 715.722656,112.523438 C715.722656,122.940156 712.109411,131.956993 704.882812,139.574219 C697.656214,147.191444 688.802136,151.325518 678.320312,151.976562 C677.278641,151.976562 676.757812,151.423183 676.757812,150.316406 L676.757812,138.5 C676.757812,137.393224 677.278641,136.839844 678.320312,136.839844 C684.635448,136.123694 689.941385,133.45445 694.238281,128.832031 C698.535178,124.209612 700.683594,118.773469 700.683594,112.523438 C700.683594,105.817675 698.242212,100.039738 693.359375,95.1894531 C688.476538,90.3391685 682.649773,87.9140625 675.878906,87.9140625 L661.132812,87.9140625 L660.15625,81.2734375 C659.440101,73.005167 656.00589,66.0553667 649.853516,60.4238281 C643.701141,54.7922896 636.425823,51.9765625 628.027344,51.9765625 C619.628864,51.9765625 612.272167,54.9713242 605.957031,60.9609375 C605.566404,61.4817734 604.785162,61.5794287 603.613281,61.2539062 C600.618475,59.365876 596.875022,57.4453223 592.382812,55.4921875 C590.820305,55.0364561 590.559891,54.3203174 591.601562,53.34375 L591.601562,53.34375 Z" id="clouds" sketch:type="MSShapeGroup"></path>
        </g>
    </g>
</svg>