<?xml version="1.0" encoding="UTF-8" standalone="no"?>
<svg width="217px" height="213px" viewBox="0 0 217 213" version="1.1" xmlns="http://www.w3.org/2000/svg" xmlns:xlink="http://www.w3.org/1999/xlink" xmlns:sketch="http://www.bohemiancoding.com/sketch/ns">
    <!-- Generator: Sketch 3.1.1 (8761) - http://www.bohemiancoding.com/sketch -->
    <title>drizzle</title>
    <desc>Created with Sketch.</desc>
    <defs></defs>
    <g id="Page-1" stroke="none" stroke-width="1" fill="none" fill-rule="evenodd" sketch:type="MSPage">
        <g id="Portrait---6" sketch:type="MSArtboardGroup" transform="translate(-491.000000, -382.000000)" fill="#FFFFFF">
            <path d="M491.199219,482.230469 C491.199219,470.186138 494.975223,459.476609 502.527344,450.101562 C510.079465,440.726516 519.747337,434.70444 531.53125,432.035156 C534.591161,417.712168 541.7851,405.944708 553.113281,396.732422 C564.441463,387.520136 577.462166,382.914062 592.175781,382.914062 C606.694083,382.914062 619.600855,387.341102 630.896484,396.195312 C642.192114,405.049523 649.565087,416.507742 653.015625,430.570312 L656.53125,430.570312 C665.906297,430.570312 674.532513,432.865211 682.410156,437.455078 C690.2878,442.044945 696.48891,448.311158 701.013672,456.253906 C705.538434,464.196654 707.800781,472.855422 707.800781,482.230469 C707.800781,496.16283 703.031949,508.109325 693.494141,518.070312 C683.956333,528.0313 672.253976,533.239581 658.386719,533.695312 C657.149733,533.695312 656.53125,533.109381 656.53125,531.9375 L656.53125,517.972656 C656.53125,516.800775 657.149733,516.214844 658.386719,516.214844 C667.175825,515.498694 674.695281,511.869173 680.945312,505.326172 C687.195344,498.78317 690.320312,491.08468 690.320312,482.230469 C690.320312,472.920526 687.000033,464.912794 680.359375,458.207031 C673.718717,451.501269 665.776088,448.148438 656.53125,448.148438 L639.539062,448.148438 C638.302077,448.148438 637.553387,447.529954 637.292969,446.292969 L636.511719,440.335938 C635.795569,432.914025 633.370463,426.192087 629.236328,420.169922 C625.102193,414.147756 619.77998,409.427751 613.269531,406.009766 C606.759082,402.59178 599.727902,400.882812 592.175781,400.882812 C580.717391,400.882812 570.772829,404.675092 562.341797,412.259766 C553.910765,419.844439 549.141933,429.300725 548.035156,440.628906 L547.351562,446.292969 C547.351562,447.269536 546.798183,447.757812 545.691406,447.757812 L540.222656,448.539062 C531.43355,449.255212 524.093128,452.835905 518.201172,459.28125 C512.309215,465.726595 509.363281,473.376258 509.363281,482.230469 C509.363281,491.279993 512.439422,499.076139 518.591797,505.619141 C524.744171,512.162142 532.279903,515.694008 541.199219,516.214844 C542.436204,516.214844 543.054688,516.800775 543.054688,517.972656 L543.054688,531.9375 C543.054688,533.109381 542.436204,533.695312 541.199219,533.695312 C534.363247,533.36979 527.852896,531.807306 521.667969,529.007812 C515.483042,526.208319 510.16083,522.529971 505.701172,517.972656 C501.241514,513.415342 497.709648,508.028026 495.105469,501.810547 C492.501289,495.593068 491.199219,489.06644 491.199219,482.230469 L491.199219,482.230469 Z M547.644531,552.738281 C547.644531,552.412759 547.709635,551.957034 547.839844,551.371094 C547.970053,550.785153 548.035156,550.394532 548.035156,550.199219 L550.867188,539.457031 C551.583337,537.11327 552.966787,535.339199 555.017578,534.134766 C557.06837,532.930333 559.298165,532.686194 561.707031,533.402344 C564.050793,534.118493 565.84114,535.501943 567.078125,537.552734 C568.31511,539.603526 568.575524,541.833321 567.859375,544.242188 L565.320312,554.789062 C563.953118,559.346377 561.316426,561.625 557.410156,561.625 C557.149738,561.625 556.840497,561.608724 556.482422,561.576172 C556.124347,561.54362 555.733726,561.494792 555.310547,561.429688 C554.887368,561.364583 554.545574,561.332031 554.285156,561.332031 C552.071604,560.680986 550.411464,559.492847 549.304688,557.767578 C548.197911,556.042309 547.644531,554.365894 547.644531,552.738281 L547.644531,552.738281 Z M561.414062,502.542969 C561.414062,502.282551 561.46289,501.89193 561.560547,501.371094 C561.658204,500.850258 561.707031,500.52474 561.707031,500.394531 L564.832031,489.457031 C565.483076,487.438792 566.589836,485.892583 568.152344,484.818359 C569.714852,483.744135 571.342439,483.207031 573.035156,483.207031 C573.295574,483.207031 573.572264,483.223307 573.865234,483.255859 C574.158205,483.288412 574.483722,483.337239 574.841797,483.402344 C575.199872,483.467448 575.476562,483.5 575.671875,483.5 C578.015637,484.216149 579.789708,485.599599 580.994141,487.650391 C582.198574,489.701182 582.442712,491.930978 581.726562,494.339844 L579.1875,504.789062 C578.471351,507.65366 577.071625,509.688145 574.988281,510.892578 C572.904937,512.097011 570.658866,512.178391 568.25,511.136719 C565.971343,510.485674 564.262375,509.313811 563.123047,507.621094 C561.983718,505.928377 561.414062,504.235686 561.414062,502.542969 L561.414062,502.542969 Z M574.207031,585.355469 C574.207031,585.029946 574.272135,584.590498 574.402344,584.037109 C574.532553,583.483721 574.597656,583.076824 574.597656,582.816406 L577.625,572.464844 C578.276045,569.990873 579.659495,568.119147 581.775391,566.849609 C583.891287,565.580072 586.153634,565.303382 588.5625,566.019531 C590.906262,566.735681 592.664057,568.151682 593.835938,570.267578 C595.007818,572.383474 595.235681,574.645821 594.519531,577.054688 L591.882812,587.894531 C590.776036,592.126323 588.009137,594.242188 583.582031,594.242188 C583.061195,594.242188 582.21485,594.11198 581.042969,593.851562 C578.764312,593.460936 577.055344,592.403003 575.916016,590.677734 C574.776687,588.952465 574.207031,587.178395 574.207031,585.355469 L574.207031,585.355469 Z M588.171875,535.648438 C588.171875,535.062497 588.302082,534.1836 588.5625,533.011719 L591.394531,522.269531 C592.110681,519.92577 593.526682,518.151699 595.642578,516.947266 C597.758474,515.742833 600.020821,515.498694 602.429688,516.214844 C604.773449,516.865889 606.531244,518.216787 607.703125,520.267578 C608.875006,522.31837 609.070316,524.580717 608.289062,527.054688 L605.75,537.40625 C604.44791,542.093773 601.941425,544.4375 598.230469,544.4375 C597.774737,544.4375 596.700529,544.242189 595.007812,543.851562 C592.729155,543.395831 591.020188,542.370451 589.880859,540.775391 C588.741531,539.180331 588.171875,537.471363 588.171875,535.648438 L588.171875,535.648438 Z M617.566406,553.128906 C617.566406,552.412757 617.664062,551.566411 617.859375,550.589844 L620.789062,540.238281 C621.505212,537.764311 622.921213,535.892584 625.037109,534.623047 C627.153005,533.353509 629.350249,533.044268 631.628906,533.695312 C634.037772,534.411462 635.876947,535.827463 637.146484,537.943359 C638.416022,540.059255 638.725264,542.256499 638.074219,544.535156 L635.046875,555.570312 C634.005203,559.802104 631.270855,561.917969 626.84375,561.917969 C625.867183,561.917969 624.955733,561.820313 624.109375,561.625 C622.026031,561.234373 620.430995,560.176441 619.324219,558.451172 C618.217442,556.725903 617.631511,554.951832 617.566406,553.128906 L617.566406,553.128906 Z M631.921875,503.519531 C631.921875,503.194009 632.084634,502.28256 632.410156,500.785156 L635.535156,490.042969 C635.925783,487.829416 636.934888,486.185552 638.5625,485.111328 C640.190112,484.037104 641.882804,483.565104 643.640625,483.695312 C644.096356,483.630208 644.942702,483.727863 646.179688,483.988281 C648.458345,484.509117 650.248691,485.843739 651.550781,487.992188 C652.787767,489.750009 653.048181,491.99608 652.332031,494.730469 L649.792969,505.472656 C648.425774,509.964866 645.789082,512.210938 641.882812,512.210938 C641.231768,512.210938 640.059904,512.015627 638.367188,511.625 C636.218739,510.973955 634.607427,509.883471 633.533203,508.353516 C632.458979,506.82356 631.921875,505.212248 631.921875,503.519531 L631.921875,503.519531 Z" id="drizzle" sketch:type="MSShapeGroup"></path>
        </g>
    </g>
</svg>