<?xml version="1.0" encoding="UTF-8" standalone="no"?>
<svg width="216px" height="77px" viewBox="0 0 216 77" version="1.1" xmlns="http://www.w3.org/2000/svg" xmlns:xlink="http://www.w3.org/1999/xlink" xmlns:sketch="http://www.bohemiancoding.com/sketch/ns">
    <!-- Generator: Sketch 3.1.1 (8761) - http://www.bohemiancoding.com/sketch -->
    <title>fog</title>
    <desc>Created with Sketch.</desc>
    <defs></defs>
    <g id="Page-1" stroke="none" stroke-width="1" fill="none" fill-rule="evenodd" sketch:type="MSPage">
        <g id="Portrait---6" sketch:type="MSArtboardGroup" transform="translate(-83.000000, -428.000000)" fill="#FFFFFF">
            <path d="M83.1386719,466.789062 C83.1386719,464.445301 83.9524658,462.492195 85.5800781,460.929688 C87.2076904,459.36718 89.1933477,458.585938 91.5371094,458.585938 L217.416016,458.585938 C219.694673,458.585938 221.582675,459.350904 223.080078,460.880859 C224.577481,462.410815 225.326172,464.380196 225.326172,466.789062 C225.326172,469.06772 224.577481,470.955722 223.080078,472.453125 C221.582675,473.950528 219.694673,474.699219 217.416016,474.699219 L91.5371094,474.699219 C89.1933477,474.699219 87.2076904,473.950528 85.5800781,472.453125 C83.9524658,470.955722 83.1386719,469.06772 83.1386719,466.789062 L83.1386719,466.789062 Z M108.333984,436.613281 C108.333984,434.334624 109.147778,432.41407 110.775391,430.851562 C112.337898,429.289055 114.291004,428.507812 116.634766,428.507812 L242.611328,428.507812 C244.824881,428.507812 246.696607,429.289055 248.226562,430.851562 C249.756518,432.41407 250.521484,434.334624 250.521484,436.613281 C250.521484,438.891938 249.756518,440.828768 248.226562,442.423828 C246.696607,444.018888 244.824881,444.816406 242.611328,444.816406 L116.634766,444.816406 C114.356108,444.816406 112.403003,444.018888 110.775391,442.423828 C109.147778,440.828768 108.333984,438.891938 108.333984,436.613281 L108.333984,436.613281 Z M125.130859,496.378906 C125.130859,494.165354 125.977205,492.277352 127.669922,490.714844 C129.167325,489.21744 131.055327,488.46875 133.333984,488.46875 L259.408203,488.46875 C261.751965,488.46875 263.70507,489.21744 265.267578,490.714844 C266.830086,492.212247 267.611328,494.100249 267.611328,496.378906 C267.611328,498.657563 266.81381,500.610669 265.21875,502.238281 C263.62369,503.865894 261.68686,504.679688 259.408203,504.679688 L133.333984,504.679688 C131.055327,504.679688 129.118498,503.865894 127.523438,502.238281 C125.928377,500.610669 125.130859,498.657563 125.130859,496.378906 L125.130859,496.378906 Z M235.384766,466.789062 C235.384766,464.380196 236.149732,462.410815 237.679688,460.880859 C239.209643,459.350904 241.179024,458.585938 243.587891,458.585938 L290.658203,458.585938 C293.067069,458.585938 295.036451,459.36718 296.566406,460.929688 C298.096362,462.492195 298.861328,464.445301 298.861328,466.789062 C298.861328,469.06772 298.080086,470.955722 296.517578,472.453125 C294.95507,473.950528 293.001965,474.699219 290.658203,474.699219 L243.587891,474.699219 C241.179024,474.699219 239.209643,473.950528 237.679688,472.453125 C236.149732,470.955722 235.384766,469.06772 235.384766,466.789062 L235.384766,466.789062 Z" id="fog" sketch:type="MSShapeGroup"></path>
        </g>
    </g>
</svg>