<?xml version="1.0" encoding="UTF-8" standalone="no"?>
<svg width="280px" height="219px" viewBox="0 0 280 219" version="1.1" xmlns="http://www.w3.org/2000/svg" xmlns:xlink="http://www.w3.org/1999/xlink" xmlns:sketch="http://www.bohemiancoding.com/sketch/ns">
    <!-- Generator: Sketch 3.1.1 (8761) - http://www.bohemiancoding.com/sketch -->
    <title>generic</title>
    <desc>Created with Sketch.</desc>
    <defs></defs>
    <g id="Page-1" stroke="none" stroke-width="1" fill="none" fill-rule="evenodd" sketch:type="MSPage">
        <g id="Portrait---6" sketch:type="MSArtboardGroup" transform="translate(-51.000000, -1011.000000)" fill="#FFFFFF">
            <path d="M51.0097656,1177.9375 C51.0097656,1187.31255 53.3046646,1195.97131 57.8945312,1203.91406 C62.4843979,1211.85681 68.7180596,1218.12302 76.5957031,1222.71289 C84.4733467,1227.30276 93.0670107,1229.59766 102.376953,1229.59766 L215.169922,1229.59766 C224.479864,1229.59766 233.10608,1227.30276 241.048828,1222.71289 C248.991576,1218.12302 255.274065,1211.85681 259.896484,1203.91406 C264.518903,1195.97131 266.830078,1187.31255 266.830078,1177.9375 C266.830078,1171.03642 265.365249,1164.1029 262.435547,1157.13672 C270.378295,1147.43615 274.349609,1135.94538 274.349609,1122.66406 C274.349609,1115.24215 272.917332,1108.16214 270.052734,1101.42383 C267.188137,1094.68551 263.314478,1088.87502 258.431641,1083.99219 C253.548804,1079.10935 247.738315,1075.23569 241,1072.37109 C234.261685,1069.5065 227.181678,1068.07422 219.759766,1068.07422 C204.330001,1068.07422 190.853573,1074.12885 179.330078,1086.23828 C171.257121,1081.68097 161.882215,1079.40234 151.205078,1079.40234 C136.556567,1079.40234 123.600968,1083.94331 112.337891,1093.02539 C101.074813,1102.10747 93.8483232,1113.74472 90.6582031,1127.9375 C79.004499,1130.60678 69.4831099,1136.59631 62.09375,1145.90625 C54.7043901,1155.21619 51.0097656,1165.89317 51.0097656,1177.9375 L51.0097656,1177.9375 Z M68.7832031,1177.9375 C68.7832031,1169.2135 71.6965854,1161.69404 77.5234375,1155.37891 C83.3502896,1149.06377 90.6581592,1145.38542 99.4472656,1144.34375 L104.623047,1144.05078 C105.925137,1144.05078 106.576172,1143.4323 106.576172,1142.19531 L107.259766,1136.53125 C108.692064,1125.26817 113.574828,1115.84444 121.908203,1108.25977 C130.241578,1100.67509 140.007105,1096.88281 151.205078,1096.88281 C162.663469,1096.88281 172.640583,1100.69137 181.136719,1108.30859 C189.632855,1115.92582 194.401688,1125.33328 195.443359,1136.53125 L196.224609,1142.58594 C196.485027,1143.75782 197.201166,1144.34375 198.373047,1144.34375 L215.169922,1144.34375 C224.349655,1144.34375 232.259732,1147.66403 238.900391,1154.30469 C245.541049,1160.94535 248.861328,1168.82287 248.861328,1177.9375 C248.861328,1187.37765 245.557325,1195.43421 238.949219,1202.10742 C232.341113,1208.78063 224.41476,1212.11719 215.169922,1212.11719 L102.376953,1212.11719 C93.2623242,1212.11719 85.3847988,1208.74808 78.7441406,1202.00977 C72.1034824,1195.27145 68.7832031,1187.24744 68.7832031,1177.9375 L68.7832031,1177.9375 Z M138.607422,1050.10547 C138.607422,1052.64454 139.453768,1054.82551 141.146484,1056.64844 L147.982422,1063.28906 C150.586602,1065.2422 152.800121,1066.12109 154.623047,1065.92578 C156.771495,1065.92578 158.692049,1065.03061 160.384766,1063.24023 C162.077482,1061.44986 162.923828,1059.28517 162.923828,1056.74609 C162.923828,1054.20702 162.012379,1052.15626 160.189453,1050.59375 L154.037109,1043.75781 C152.149079,1042.0651 150.033215,1041.21875 147.689453,1041.21875 C145.150378,1041.21875 143.001962,1042.08137 141.244141,1043.80664 C139.486319,1045.53191 138.607422,1047.6315 138.607422,1050.10547 L138.607422,1050.10547 Z M194.271484,1096.19922 C201.498083,1089.23304 209.994092,1085.75 219.759766,1085.75 C230.046275,1085.75 238.786422,1089.33069 245.980469,1096.49219 C253.174515,1103.65368 256.771484,1112.37755 256.771484,1122.66406 C256.771484,1129.17451 255.013689,1135.55466 251.498047,1141.80469 C241.406851,1131.8437 229.297597,1126.86328 215.169922,1126.86328 L211.849609,1126.86328 C209.24543,1115.5351 203.386113,1105.31385 194.271484,1096.19922 L194.271484,1096.19922 Z M211.166016,1041.21875 C211.166016,1043.88803 211.97981,1046.03645 213.607422,1047.66406 C215.235034,1049.29167 217.285795,1050.10547 219.759766,1050.10547 C222.42905,1050.10547 224.577466,1049.29167 226.205078,1047.66406 C227.83269,1046.03645 228.646484,1043.88803 228.646484,1041.21875 L228.646484,1019.92969 C228.646484,1017.45572 227.816415,1015.40496 226.15625,1013.77734 C224.496085,1012.14973 222.363945,1011.33594 219.759766,1011.33594 C217.285795,1011.33594 215.235034,1012.14973 213.607422,1013.77734 C211.97981,1015.40496 211.166016,1017.45572 211.166016,1019.92969 L211.166016,1041.21875 Z M268.685547,1065.14453 C268.685547,1067.81382 269.466789,1069.96223 271.029297,1071.58984 C273.24285,1073.28256 275.391266,1074.12891 277.474609,1074.12891 C279.36264,1074.12891 281.4134,1073.28256 283.626953,1071.58984 L298.568359,1056.64844 C300.261076,1054.76041 301.107422,1052.54689 301.107422,1050.00781 C301.107422,1047.53384 300.261076,1045.45053 298.568359,1043.75781 C296.875643,1042.0651 294.824882,1041.21875 292.416016,1041.21875 C289.942045,1041.21875 287.923836,1042.0651 286.361328,1043.75781 L271.029297,1058.69922 C269.466789,1060.58725 268.685547,1062.73567 268.685547,1065.14453 L268.685547,1065.14453 Z M276.986328,1188.38672 C276.986328,1190.86069 277.865226,1193.04166 279.623047,1194.92969 L286.361328,1201.47266 C287.923836,1203.16537 289.942045,1204.01172 292.416016,1204.01172 C294.889986,1204.01172 296.957023,1203.1491 298.617188,1201.42383 C300.277352,1199.69856 301.107422,1197.53387 301.107422,1194.92969 C301.107422,1192.58593 300.261076,1190.56772 298.568359,1188.875 L291.830078,1182.13672 C290.137361,1180.444 288.151704,1179.59766 285.873047,1179.59766 C283.399076,1179.59766 281.299488,1180.444 279.574219,1182.13672 C277.84895,1183.82944 276.986328,1185.91275 276.986328,1188.38672 L276.986328,1188.38672 Z M292.220703,1122.66406 C292.220703,1125.07293 293.132152,1127.09114 294.955078,1128.71875 C296.647795,1130.41147 298.763659,1131.25781 301.302734,1131.25781 L322.591797,1131.25781 C325.000663,1131.25781 327.002596,1130.44402 328.597656,1128.81641 C330.192716,1127.18879 330.990234,1125.13803 330.990234,1122.66406 C330.990234,1120.19009 330.192716,1118.0905 328.597656,1116.36523 C327.002596,1114.63997 325.000663,1113.77734 322.591797,1113.77734 L301.302734,1113.77734 C298.828764,1113.77734 296.696624,1114.65624 294.90625,1116.41406 C293.115876,1118.17188 292.220703,1120.2552 292.220703,1122.66406 L292.220703,1122.66406 Z" id="generic" sketch:type="MSShapeGroup"></path>
        </g>
    </g>
</svg>