<?xml version="1.0" encoding="UTF-8" standalone="no"?>
<svg width="216px" height="210px" viewBox="0 0 216 210" version="1.1" xmlns="http://www.w3.org/2000/svg" xmlns:xlink="http://www.w3.org/1999/xlink" xmlns:sketch="http://www.bohemiancoding.com/sketch/ns">
    <!-- Generator: Sketch 3.1.1 (8761) - http://www.bohemiancoding.com/sketch -->
    <title>rain</title>
    <desc>Created with Sketch.</desc>
    <defs></defs>
    <g id="Page-1" stroke="none" stroke-width="1" fill="none" fill-rule="evenodd" sketch:type="MSPage">
        <g id="Portrait---6" sketch:type="MSArtboardGroup" transform="translate(-83.000000, -719.000000)" fill="#FFFFFF">
            <path d="M83.0410156,818.035156 C83.0410156,806.05593 86.7844678,795.395229 94.2714844,786.052734 C101.758501,776.71024 111.231063,770.70444 122.689453,768.035156 C125.944678,753.842377 133.268823,742.188848 144.662109,733.074219 C156.055396,723.95959 169.076099,719.402344 183.724609,719.402344 C198.047598,719.402344 210.824163,723.845659 222.054688,732.732422 C233.285212,741.619185 240.593082,753.028576 243.978516,766.960938 L247.298828,766.960938 C256.608771,766.960938 265.234986,769.223285 273.177734,773.748047 C281.120482,778.272809 287.402972,784.457643 292.025391,792.302734 C296.64781,800.147826 298.958984,808.725214 298.958984,818.035156 C298.958984,827.149785 296.761741,835.629518 292.367188,843.474609 C287.972634,851.319701 281.966835,857.585914 274.349609,862.273438 C266.732384,866.960961 258.399134,869.434895 249.349609,869.695312 C247.982415,869.695312 247.298828,869.109381 247.298828,867.9375 L247.298828,854.070312 C247.298828,852.833327 247.982415,852.214844 249.349609,852.214844 C258.20382,851.759112 265.772104,848.210971 272.054688,841.570312 C278.337271,834.929654 281.478516,827.084681 281.478516,818.035156 C281.478516,808.985632 278.093133,801.124382 271.322266,794.451172 C264.551398,787.777961 256.543666,784.441406 247.298828,784.441406 L230.501953,784.441406 C229.264968,784.441406 228.646484,783.855475 228.646484,782.683594 L227.865234,776.628906 C226.693354,765.365829 221.859417,755.942095 213.363281,748.357422 C204.867145,740.772749 194.987687,736.980469 183.724609,736.980469 C172.331323,736.980469 162.419313,740.772749 153.988281,748.357422 C145.55725,755.942095 140.820969,765.365829 139.779297,776.628906 L138.998047,782.195312 C138.998047,783.497402 138.31446,784.148438 136.947266,784.148438 L131.478516,784.441406 C122.819618,785.483078 115.5443,789.193979 109.652344,795.574219 C103.760387,801.954459 100.814453,809.441363 100.814453,818.035156 C100.814453,827.084681 103.939422,834.929654 110.189453,841.570312 C116.439484,848.210971 124.024044,851.759112 132.943359,852.214844 C134.11524,852.214844 134.701172,852.833327 134.701172,854.070312 L134.701172,867.9375 C134.701172,869.109381 134.11524,869.695312 132.943359,869.695312 C119.010998,869.044268 107.210986,863.738331 97.5429688,853.777344 C87.8749517,843.816356 83.0410156,831.902413 83.0410156,818.035156 L83.0410156,818.035156 Z M138.802734,887.664062 C138.802734,887.208331 138.932941,886.524744 139.193359,885.613281 L156.185547,825.554688 C156.836592,823.536448 157.959627,822.006516 159.554688,820.964844 C161.149748,819.923172 162.76106,819.402344 164.388672,819.402344 C165.104821,819.402344 165.951167,819.499999 166.927734,819.695312 C169.401705,820.151044 171.273431,821.420562 172.542969,823.503906 C173.812506,825.58725 174.089196,827.898425 173.373047,830.4375 L156.380859,890.105469 C155.07877,894.532574 152.214215,896.746094 147.787109,896.746094 C147.396482,896.746094 147.005861,896.68099 146.615234,896.550781 C146.029294,896.355468 145.671225,896.257812 145.541016,896.257812 C143.262358,895.606768 141.569667,894.45118 140.462891,892.791016 C139.356114,891.130851 138.802734,889.421884 138.802734,887.664062 L138.802734,887.664062 Z M166.146484,916.960938 L191.537109,825.554688 C191.992841,823.536448 193.034497,822.006516 194.662109,820.964844 C196.289722,819.923172 197.982413,819.402344 199.740234,819.402344 C200.651697,819.402344 201.595698,819.499999 202.572266,819.695312 C204.850923,820.346357 206.543614,821.697255 207.650391,823.748047 C208.757167,825.798838 208.985029,828.028634 208.333984,830.4375 L183.041016,921.941406 C182.650389,923.699228 181.641284,925.196608 180.013672,926.433594 C178.38606,927.670579 176.628265,928.289062 174.740234,928.289062 C173.763667,928.289062 172.88477,928.126304 172.103516,927.800781 C170.020172,927.279945 168.229825,925.912771 166.732422,923.699219 C165.560541,921.876293 165.36523,919.630222 166.146484,916.960938 L166.146484,916.960938 Z M209.115234,887.957031 C209.115234,887.566404 209.245441,886.785162 209.505859,885.613281 L226.498047,825.554688 C227.083987,823.536448 228.141919,822.006516 229.671875,820.964844 C231.201831,819.923172 232.813143,819.402344 234.505859,819.402344 C235.352218,819.402344 236.263667,819.499999 237.240234,819.695312 C239.388683,820.281253 240.999995,821.355461 242.074219,822.917969 C243.148443,824.480477 243.685547,826.108064 243.685547,827.800781 C243.685547,828.126304 243.620443,828.598304 243.490234,829.216797 C243.360025,829.83529 243.294922,830.242187 243.294922,830.4375 L226.302734,890.105469 C225.912107,892.123708 224.935555,893.73502 223.373047,894.939453 C221.810539,896.143886 220.052744,896.746094 218.099609,896.746094 L215.560547,896.257812 C213.477203,895.671872 211.882167,894.548836 210.775391,892.888672 C209.668614,891.228507 209.115234,889.584644 209.115234,887.957031 L209.115234,887.957031 Z" id="rain" sketch:type="MSShapeGroup"></path>
        </g>
    </g>
</svg>