<?xml version="1.0" encoding="UTF-8" standalone="no"?>
<svg width="216px" height="209px" viewBox="0 0 216 209" version="1.1" xmlns="http://www.w3.org/2000/svg" xmlns:xlink="http://www.w3.org/1999/xlink" xmlns:sketch="http://www.bohemiancoding.com/sketch/ns">
    <!-- Generator: Sketch 3.1.1 (8761) - http://www.bohemiancoding.com/sketch -->
    <title>snow</title>
    <desc>Created with Sketch.</desc>
    <defs></defs>
    <g id="Page-1" stroke="none" stroke-width="1" fill="none" fill-rule="evenodd" sketch:type="MSPage">
        <g id="Portrait---6" sketch:type="MSArtboardGroup" transform="translate(-492.000000, -1079.000000)" fill="#FFFFFF">
            <path d="M492.041016,1178.42578 C492.041016,1166.38145 495.73564,1155.6882 503.125,1146.3457 C510.51436,1137.00321 520.035749,1130.89975 531.689453,1128.03516 C534.944678,1113.84238 542.252547,1102.18885 553.613281,1093.07422 C564.974015,1083.95959 578.010994,1079.40234 592.724609,1079.40234 C607.047598,1079.40234 619.824163,1083.84566 631.054688,1092.73242 C642.285212,1101.61919 649.593082,1113.02858 652.978516,1126.96094 L656.298828,1126.96094 C665.608771,1126.96094 674.234986,1129.25584 682.177734,1133.8457 C690.120482,1138.43557 696.402972,1144.68551 701.025391,1152.5957 C705.64781,1160.5059 707.958984,1169.11584 707.958984,1178.42578 C707.958984,1192.22793 703.141324,1204.10933 693.505859,1214.07031 C683.870395,1224.0313 672.151762,1229.23958 658.349609,1229.69531 C656.982415,1229.69531 656.298828,1229.10938 656.298828,1227.9375 L656.298828,1214.07031 C656.298828,1212.83333 656.982415,1212.21484 658.349609,1212.21484 C667.20382,1211.75911 674.772104,1208.22725 681.054688,1201.61914 C687.337271,1195.01103 690.478516,1187.27999 690.478516,1178.42578 C690.478516,1169.18094 687.125685,1161.20576 680.419922,1154.5 C673.714159,1147.79424 665.673875,1144.44141 656.298828,1144.44141 L639.501953,1144.44141 C638.264968,1144.44141 637.646484,1143.85547 637.646484,1142.68359 L636.865234,1136.62891 C635.693354,1125.36583 630.859417,1115.92582 622.363281,1108.30859 C613.867145,1100.69137 603.987687,1096.88281 592.724609,1096.88281 C581.266219,1096.88281 571.321657,1100.72392 562.890625,1108.40625 C554.459593,1116.08858 549.690761,1125.62625 548.583984,1137.01953 L547.998047,1142.19531 C547.998047,1143.4974 547.31446,1144.14844 545.947266,1144.14844 L540.478516,1144.83203 C531.819618,1145.54818 524.5443,1149.14515 518.652344,1155.62305 C512.760387,1162.10094 509.814453,1169.70178 509.814453,1178.42578 C509.814453,1187.27999 512.955698,1195.01103 519.238281,1201.61914 C525.520865,1208.22725 533.089148,1211.75911 541.943359,1212.21484 C543.11524,1212.21484 543.701172,1212.83333 543.701172,1214.07031 L543.701172,1227.9375 C543.701172,1229.10938 543.11524,1229.69531 541.943359,1229.69531 C528.010998,1229.23958 516.210986,1224.0313 506.542969,1214.07031 C496.874952,1204.10933 492.041016,1192.22793 492.041016,1178.42578 L492.041016,1178.42578 Z M558.349609,1220.80859 C558.349609,1218.46483 559.179679,1216.44662 560.839844,1214.75391 C562.500008,1213.06119 564.534493,1212.21484 566.943359,1212.21484 C569.352226,1212.21484 571.38671,1213.06119 573.046875,1214.75391 C574.70704,1216.44662 575.537109,1218.46483 575.537109,1220.80859 C575.537109,1223.28256 574.70704,1225.38215 573.046875,1227.10742 C571.38671,1228.83269 569.352226,1229.69531 566.943359,1229.69531 C564.534493,1229.69531 562.500008,1228.83269 560.839844,1227.10742 C559.179679,1225.38215 558.349609,1223.28256 558.349609,1220.80859 L558.349609,1220.80859 Z M558.349609,1258.60156 C558.349609,1256.12759 559.195955,1254.04428 560.888672,1252.35156 C562.516284,1250.78905 564.534493,1250.00781 566.943359,1250.00781 C569.352226,1250.00781 571.38671,1250.82161 573.046875,1252.44922 C574.70704,1254.07683 575.537109,1256.12759 575.537109,1258.60156 C575.537109,1261.07553 574.70704,1263.12629 573.046875,1264.75391 C571.38671,1266.38152 569.352226,1267.19531 566.943359,1267.19531 C564.534493,1267.19531 562.500008,1266.38152 560.839844,1264.75391 C559.179679,1263.12629 558.349609,1261.07553 558.349609,1258.60156 L558.349609,1258.60156 Z M591.552734,1240.92578 C591.552734,1238.51692 592.431632,1236.3685 594.189453,1234.48047 C595.88217,1232.78775 597.867827,1231.94141 600.146484,1231.94141 C602.555351,1231.94141 604.654939,1232.83658 606.445312,1234.62695 C608.235686,1236.41733 609.130859,1238.51692 609.130859,1240.92578 C609.130859,1243.33465 608.251962,1245.40168 606.494141,1247.12695 C604.736319,1248.85222 602.620455,1249.71484 600.146484,1249.71484 C597.802723,1249.71484 595.784514,1248.85222 594.091797,1247.12695 C592.39908,1245.40168 591.552734,1243.33465 591.552734,1240.92578 L591.552734,1240.92578 Z M591.552734,1203.23047 C591.552734,1200.8216 592.431632,1198.73829 594.189453,1196.98047 C596.012379,1195.28775 597.998036,1194.44141 600.146484,1194.44141 C602.620455,1194.44141 604.736319,1195.30403 606.494141,1197.0293 C608.251962,1198.75457 609.130859,1200.8216 609.130859,1203.23047 C609.130859,1205.63933 608.251962,1207.67382 606.494141,1209.33398 C604.736319,1210.99415 602.620455,1211.82422 600.146484,1211.82422 C597.802723,1211.82422 595.784514,1210.99415 594.091797,1209.33398 C592.39908,1207.67382 591.552734,1205.63933 591.552734,1203.23047 L591.552734,1203.23047 Z M591.552734,1279.01172 C591.552734,1276.66796 592.431632,1274.55209 594.189453,1272.66406 C595.88217,1270.97135 597.867827,1270.125 600.146484,1270.125 C602.620455,1270.125 604.736319,1271.0039 606.494141,1272.76172 C608.251962,1274.51954 609.130859,1276.60285 609.130859,1279.01172 C609.130859,1281.42058 608.251962,1283.45507 606.494141,1285.11523 C604.736319,1286.7754 602.620455,1287.60547 600.146484,1287.60547 C597.802723,1287.60547 595.784514,1286.7754 594.091797,1285.11523 C592.39908,1283.45507 591.552734,1281.42058 591.552734,1279.01172 L591.552734,1279.01172 Z M625.146484,1220.80859 C625.146484,1218.52994 626.025382,1216.528 627.783203,1214.80273 C629.541024,1213.07747 631.624337,1212.21484 634.033203,1212.21484 C636.442069,1212.21484 638.476554,1213.06119 640.136719,1214.75391 C641.796883,1216.44662 642.626953,1218.46483 642.626953,1220.80859 C642.626953,1223.28256 641.796883,1225.38215 640.136719,1227.10742 C638.476554,1228.83269 636.442069,1229.69531 634.033203,1229.69531 C631.559232,1229.69531 629.459644,1228.81642 627.734375,1227.05859 C626.009106,1225.30077 625.146484,1223.21746 625.146484,1220.80859 L625.146484,1220.80859 Z M625.146484,1258.60156 C625.146484,1256.32291 626.025382,1254.23959 627.783203,1252.35156 C629.47592,1250.78905 631.559232,1250.00781 634.033203,1250.00781 C636.507174,1250.00781 638.557935,1250.82161 640.185547,1252.44922 C641.813159,1254.07683 642.626953,1256.12759 642.626953,1258.60156 C642.626953,1261.07553 641.813159,1263.12629 640.185547,1264.75391 C638.557935,1266.38152 636.507174,1267.19531 634.033203,1267.19531 C631.559232,1267.19531 629.459644,1266.36524 627.734375,1264.70508 C626.009106,1263.04491 625.146484,1261.01043 625.146484,1258.60156 L625.146484,1258.60156 Z" id="snow" sketch:type="MSShapeGroup"></path>
        </g>
    </g>
</svg>