<?xml version="1.0" encoding="UTF-8" standalone="no"?>
<svg width="217px" height="214px" viewBox="0 0 217 214" version="1.1" xmlns="http://www.w3.org/2000/svg" xmlns:xlink="http://www.w3.org/1999/xlink" xmlns:sketch="http://www.bohemiancoding.com/sketch/ns">
    <!-- Generator: Sketch 3.1.1 (8761) - http://www.bohemiancoding.com/sketch -->
    <title>thunder</title>
    <desc>Created with Sketch.</desc>
    <defs></defs>
    <g id="Page-1" stroke="none" stroke-width="1" fill="none" fill-rule="evenodd" sketch:type="MSPage">
        <g id="Portrait---6" sketch:type="MSArtboardGroup" transform="translate(-83.000000, -37.000000)" fill="#FFFFFF">
            <path d="M83.4433594,136.535156 C83.4433594,148.058651 86.8938457,158.377559 93.7949219,167.492188 C100.695998,176.606816 109.647731,182.824202 120.650391,186.144531 L113.814453,203.625 C113.488931,205.122403 113.977207,205.871094 115.279297,205.871094 L137.447266,205.871094 L127.193359,250.695312 L130.123047,250.695312 L170.943359,190.832031 C171.333986,190.3763 171.382814,189.904299 171.089844,189.416016 C170.796874,188.927732 170.292321,188.683594 169.576172,188.683594 L146.919922,188.683594 L172.701172,140.34375 C173.417321,138.846347 172.929045,138.097656 171.236328,138.097656 L140.572266,138.097656 C139.595698,138.097656 138.781904,138.618484 138.130859,139.660156 L126.998047,169.542969 C119.576135,167.654938 113.423853,163.618521 108.541016,157.433594 C103.658179,151.248667 101.216797,144.282591 101.216797,136.535156 C101.216797,127.876259 104.162731,120.356803 110.054688,113.976562 C115.946644,107.596322 123.254514,103.885422 131.978516,102.84375 L137.447266,102.160156 C138.81446,102.160156 139.498047,101.541673 139.498047,100.304688 L140.181641,95.03125 C141.288417,83.7681729 146.05725,74.3281631 154.488281,66.7109375 C162.919313,59.0937119 172.831323,55.2851562 184.224609,55.2851562 C195.552791,55.2851562 205.464801,59.0937119 213.960938,66.7109375 C222.457074,74.3281631 227.323562,83.7681729 228.560547,95.03125 L229.244141,101.085938 C229.244141,102.257818 229.862624,102.84375 231.099609,102.84375 L247.798828,102.84375 C257.238979,102.84375 265.311815,106.147753 272.017578,112.755859 C278.723341,119.363965 282.076172,127.290318 282.076172,136.535156 C282.076172,145.389367 278.983755,153.055306 272.798828,159.533203 C266.613901,166.0111 258.964238,169.608069 249.849609,170.324219 C248.482415,170.324219 247.798828,170.942702 247.798828,172.179688 L247.798828,186.4375 C247.798828,187.609381 248.482415,188.195312 249.849609,188.195312 C263.716866,187.739581 275.484327,182.498748 285.152344,172.472656 C294.820361,162.446564 299.654297,150.467518 299.654297,136.535156 C299.654297,127.160109 297.343122,118.517618 292.720703,110.607422 C288.098284,102.697226 281.799519,96.4472886 273.824219,91.8574219 C265.848918,87.2675552 257.173875,84.9726562 247.798828,84.9726562 L244.576172,84.9726562 C241.125634,71.1053994 233.785212,59.7773877 222.554688,50.9882812 C211.324163,42.1991748 198.547598,37.8046875 184.224609,37.8046875 C169.510994,37.8046875 156.457739,42.3619336 145.064453,51.4765625 C133.671167,60.5911914 126.379573,72.2447207 123.189453,86.4375 C111.665958,89.1067842 102.160845,95.1125835 94.6738281,104.455078 C87.1868115,113.797573 83.4433594,124.490825 83.4433594,136.535156 L83.4433594,136.535156 Z M168.306641,237.707031 C168.306641,241.808614 170.32485,244.477858 174.361328,245.714844 C174.491537,245.714844 174.882158,245.763671 175.533203,245.861328 C176.184248,245.958985 176.672524,246.007812 176.998047,246.007812 C178.755868,246.007812 180.464835,245.50326 182.125,244.494141 C183.785165,243.485021 184.9082,241.808605 185.494141,239.464844 L208.931641,148.9375 C209.582686,146.463529 209.354823,144.217458 208.248047,142.199219 C207.141271,140.180979 205.416027,138.813806 203.072266,138.097656 C201.314444,137.902343 200.402995,137.804688 200.337891,137.804688 C198.645174,137.804688 197.00131,138.325516 195.40625,139.367188 C193.81119,140.408859 192.720706,141.971344 192.134766,144.054688 L168.599609,234.875 C168.404296,235.786463 168.306641,236.730464 168.306641,237.707031 L168.306641,237.707031 Z M211.568359,205.773438 C211.568359,207.140632 211.926429,208.442702 212.642578,209.679688 C214.074877,211.958345 215.832672,213.488277 217.916016,214.269531 C219.022792,214.595054 220.064448,214.757812 221.041016,214.757812 C222.017583,214.757812 223.124343,214.497398 224.361328,213.976562 C226.509776,213.0651 227.974605,211.079442 228.755859,208.019531 L243.794922,148.9375 C244.120444,147.440097 244.283203,146.496096 244.283203,146.105469 C244.283203,144.542961 243.729823,142.980477 242.623047,141.417969 C241.516271,139.855461 239.921234,138.748701 237.837891,138.097656 C236.080069,137.902343 235.16862,137.804688 235.103516,137.804688 C233.345694,137.804688 231.718106,138.30924 230.220703,139.318359 C228.7233,140.327479 227.681644,141.906239 227.095703,144.054688 L211.861328,203.429688 C211.861328,203.625001 211.8125,203.999346 211.714844,204.552734 C211.617187,205.106123 211.568359,205.51302 211.568359,205.773438 L211.568359,205.773438 Z" id="thunder" sketch:type="MSShapeGroup"></path>
        </g>
    </g>
</svg>